# Blender v2.92.0 OBJ File: 'spitfire014.blend'
# www.blender.org
mtllib spitfireVStab.mtl
o Plane.005
v -0.000000 -0.180013 -0.468836
v -0.000000 -0.449015 -0.082017
v 0.000000 0.339280 0.406738
v -0.000000 -0.320720 0.553407
v -0.000000 -0.740246 -0.065409
v -0.000000 -0.729116 0.496020
v 0.025439 0.086855 -0.444289
v 0.000000 0.575301 0.173524
v 0.000000 0.049890 0.021548
v -0.000000 -0.384868 0.235695
v -0.000000 -0.955061 0.177729
v 0.012719 0.569140 -0.117654
vt 0.000000 0.500000
vt 1.000000 0.500000
vt 1.000000 1.000000
vt 0.000000 1.000000
vt 1.000000 0.000000
vt 1.000000 0.000000
vt 1.000000 0.500000
vt 0.000000 1.000000
vt 0.000000 0.500000
vt 0.000000 0.000000
vt 0.000000 0.000000
vt 1.000000 1.000000
vn -1.0000 0.0000 0.0000
vn -0.9997 0.0062 -0.0215
vn -0.9978 0.0410 -0.0512
usemtl None
s off
f 9/1/1 10/2/1 4/3/1 3/4/1
f 10/2/1 2/5/1 5/6/1 11/7/1
f 9/1/2 3/4/2 8/8/2 12/9/2
f 1/10/3 9/1/3 12/9/3 7/11/3
f 4/3/1 10/2/1 11/7/1 6/12/1
f 1/10/1 2/5/1 10/2/1 9/1/1
