# Blender v2.92.0 OBJ File: 'spitfire008.blend'
# www.blender.org
mtllib spitfireHStab.mtl
o Plane.004
v 0.658442 -0.012015 -0.522500
v 0.152023 -0.012015 -0.627517
v 0.427771 -0.012015 0.151733
v 0.089892 -0.012015 0.151839
v 0.976705 -0.012015 -0.394379
v 0.806012 -0.012015 0.146406
v 1.360447 -0.012015 -0.229335
v 1.388608 -0.012015 0.153952
v -0.658442 -0.012015 -0.522500
v -0.152023 -0.012015 -0.627517
v -0.427771 -0.012015 0.151733
v -0.089892 -0.012015 0.151839
v -0.976705 -0.012015 -0.394379
v -0.806012 -0.012015 0.146406
v -1.360447 -0.012015 -0.229335
v -1.388608 -0.012015 0.153952
vt 0.000000 0.000000
vt 0.500000 0.000000
vt 0.500000 0.500000
vt 0.000000 0.500000
vt 0.000000 0.500000
vt 0.000000 0.000000
vt 0.000000 0.500000
vt 0.000000 0.000000
vt 0.000000 0.000000
vt 0.000000 0.500000
vt 0.500000 0.500000
vt 0.500000 0.000000
vt 0.000000 0.000000
vt 0.000000 0.500000
vt 0.000000 0.000000
vt 0.000000 0.500000
vn 0.0000 1.0000 0.0000
usemtl None
s off
f 1/1/1 2/2/1 4/3/1 3/4/1
f 1/1/1 3/4/1 6/5/1 5/6/1
f 5/6/1 6/5/1 8/7/1 7/8/1
f 9/9/1 11/10/1 12/11/1 10/12/1
f 9/9/1 13/13/1 14/14/1 11/10/1
f 13/13/1 15/15/1 16/16/1 14/14/1
