# Blender v2.92.0 OBJ File: 'spitfire004.blend'
# www.blender.org
mtllib spitfireVStab.mtl
o Plane.004
v 0.658442 -0.012015 -0.522500
v 0.316884 -0.012015 0.472689
v 0.152023 -0.012015 -0.627517
v 0.082464 -0.012015 0.238286
v 0.452084 -0.012015 -0.064042
v 0.117244 -0.012015 -0.194616
v 0.976705 -0.012015 -0.394379
v 0.605111 -0.012015 0.543193
v 0.799934 -0.012015 0.064351
v 1.255417 -0.012015 -0.229335
v 0.994420 -0.012015 0.546584
v 1.145482 -0.012015 0.150913
v 1.433311 -0.012015 -0.030093
v 1.243473 -0.012015 0.489657
v 1.479924 -0.012015 0.236302
v -0.658442 -0.012015 -0.522500
v -0.316884 -0.012015 0.472689
v -0.152023 -0.012015 -0.627517
v -0.082464 -0.012015 0.238286
v -0.452084 -0.012015 -0.064042
v -0.117244 -0.012015 -0.194616
v -0.976705 -0.012015 -0.394379
v -0.605111 -0.012015 0.543193
v -0.799934 -0.012015 0.064351
v -1.255417 -0.012015 -0.229335
v -0.994420 -0.012015 0.546584
v -1.145482 -0.012015 0.150913
v -1.433311 -0.012015 -0.030093
v -1.243473 -0.012015 0.489657
v -1.479924 -0.012015 0.236302
vt 0.000000 0.500000
vt 0.500000 0.500000
vt 0.500000 1.000000
vt 0.000000 1.000000
vt 0.000000 0.000000
vt 0.500000 0.000000
vt 0.000000 1.000000
vt 0.000000 0.500000
vt 0.000000 0.000000
vt 0.000000 1.000000
vt 0.000000 0.500000
vt 0.000000 0.000000
vt 0.000000 1.000000
vt 0.000000 0.500000
vt 0.000000 0.000000
vt 0.000000 0.500000
vt 0.000000 1.000000
vt 0.500000 1.000000
vt 0.500000 0.500000
vt 0.000000 0.000000
vt 0.500000 0.000000
vt 0.000000 0.500000
vt 0.000000 1.000000
vt 0.000000 0.000000
vt 0.000000 0.500000
vt 0.000000 1.000000
vt 0.000000 0.000000
vt 0.000000 0.500000
vt 0.000000 1.000000
vt 0.000000 0.000000
vn 0.0000 1.0000 0.0000
usemtl None
s off
f 5/1/1 6/2/1 4/3/1 2/4/1
f 1/5/1 3/6/1 6/2/1 5/1/1
f 5/1/1 2/4/1 8/7/1 9/8/1
f 1/5/1 5/1/1 9/8/1 7/9/1
f 9/8/1 8/7/1 11/10/1 12/11/1
f 7/9/1 9/8/1 12/11/1 10/12/1
f 12/11/1 11/10/1 14/13/1 15/14/1
f 10/12/1 12/11/1 15/14/1 13/15/1
f 20/16/1 17/17/1 19/18/1 21/19/1
f 16/20/1 20/16/1 21/19/1 18/21/1
f 20/16/1 24/22/1 23/23/1 17/17/1
f 16/20/1 22/24/1 24/22/1 20/16/1
f 24/22/1 27/25/1 26/26/1 23/23/1
f 22/24/1 25/27/1 27/25/1 24/22/1
f 27/25/1 30/28/1 29/29/1 26/26/1
f 25/27/1 28/30/1 30/28/1 27/25/1
